<svg width="1280" height="111" viewBox="0 0 1280 111" fill="none" xmlns="http://www.w3.org/2000/svg">
<path fill-rule="evenodd" clip-rule="evenodd" d="M0 0L53 4.17052C107 8.34104 213 16.6821 320 30.7977C427 45.2341 533 65.7659 640 69.9364C747 74.1069 853 61.5954 960 57.7457C1067 53.5751 1173 57.7457 1227 59.6705L1280 61.5954V111H1227C1173 111 1067 111 960 111C853 111 747 111 640 111C533 111 427 111 320 111C213 111 107 111 53 111H0V0Z" fill="#ED9138" fill-opacity="0.8"/>
<path fill-rule="evenodd" clip-rule="evenodd" d="M0 58.8L42.6667 65.76C85.3333 72.72 170.667 86.64 256 83.16C341.333 79.68 426.667 58.8 512 44.88C597.333 30.96 682.667 24 768 24C853.333 24 938.667 30.96 1024 43.14C1109.33 55.32 1194.67 72.72 1237.33 81.42L1280 90.12V111H1237.33C1194.67 111 1109.33 111 1024 111C938.667 111 853.333 111 768 111C682.667 111 597.333 111 512 111C426.667 111 341.333 111 256 111C170.667 111 85.3333 111 42.6667 111H0V58.8Z" fill="#E44689" fill-opacity="0.8"/>
</svg>
